<svg xmlns="http://www.w3.org/2000/svg" viewBox="0 0 64 64"><defs><linearGradient id="chipGrad" x1="0%" y1="0%" x2="100%" y2="100%"><stop offset="0%" style="stop-color:#06b6d4;stop-opacity:1"/><stop offset="100%" style="stop-color:#0891b2;stop-opacity:1"/></linearGradient><filter id="glow"><feGaussianBlur stdDeviation="1" result="coloredBlur"/><feMerge><feMergeNode in="coloredBlur"/><feMergeNode in="SourceGraphic"/></feMerge></filter></defs><rect width="64" height="64" fill="#0f172a" rx="8"/><rect x="16" y="16" width="32" height="32" fill="url(#chipGrad)" rx="2"/><rect x="16" y="16" width="32" height="32" fill="none" stroke="#06b6d4" stroke-width="1.5" rx="2" opacity="0.6"/><line x1="20" y1="16" x2="20" y2="8" stroke="#06b6d4" stroke-width="1.5" filter="url(#glow)"/><line x1="32" y1="16" x2="32" y2="8" stroke="#06b6d4" stroke-width="1.5" filter="url(#glow)"/><line x1="44" y1="16" x2="44" y2="8" stroke="#06b6d4" stroke-width="1.5" filter="url(#glow)"/><line x1="20" y1="48" x2="20" y2="56" stroke="#06b6d4" stroke-width="1.5" filter="url(#glow)"/><line x1="32" y1="48" x2="32" y2="56" stroke="#06b6d4" stroke-width="1.5" filter="url(#glow)"/><line x1="44" y1="48" x2="44" y2="56" stroke="#06b6d4" stroke-width="1.5" filter="url(#glow)"/><line x1="16" y1="24" x2="8" y2="24" stroke="#06b6d4" stroke-width="1.5" filter="url(#glow)"/><line x1="16" y1="40" x2="8" y2="40" stroke="#06b6d4" stroke-width="1.5" filter="url(#glow)"/><line x1="48" y1="24" x2="56" y2="24" stroke="#06b6d4" stroke-width="1.5" filter="url(#glow)"/><line x1="48" y1="40" x2="56" y2="40" stroke="#06b6d4" stroke-width="1.5" filter="url(#glow)"/><circle cx="20" cy="16" r="1.5" fill="#86efac" filter="url(#glow)"/><circle cx="32" cy="16" r="1.5" fill="#86efac" filter="url(#glow)"/><circle cx="44" cy="16" r="1.5" fill="#86efac" filter="url(#glow)"/><circle cx="20" cy="48" r="1.5" fill="#86efac" filter="url(#glow)"/><circle cx="32" cy="48" r="1.5" fill="#86efac" filter="url(#glow)"/><circle cx="44" cy="48" r="1.5" fill="#86efac" filter="url(#glow)"/><circle cx="16" cy="24" r="1.5" fill="#86efac" filter="url(#glow)"/><circle cx="16" cy="40" r="1.5" fill="#86efac" filter="url(#glow)"/><circle cx="48" cy="24" r="1.5" fill="#86efac" filter="url(#glow)"/><circle cx="48" cy="40" r="1.5" fill="#86efac" filter="url(#glow)"/><line x1="22" y1="20" x2="42" y2="20" stroke="#a5f3fc" stroke-width="0.8" opacity="0.5"/><line x1="22" y1="32" x2="42" y2="32" stroke="#a5f3fc" stroke-width="0.8" opacity="0.5"/><line x1="22" y1="44" x2="42" y2="44" stroke="#a5f3fc" stroke-width="0.8" opacity="0.5"/><rect x="24" y="24" width="16" height="16" fill="none" stroke="#86efac" stroke-width="0.8" rx="1" opacity="0.6"/></svg>